# Wavefront OBJ file automatically generated by Tiled2Unity

# Vertices (Count = 395)
v -101 -36 0
v -102 -36 0
v -102 -35 0
v -101 -35 0
v -100 -36 0
v -100 -35 0
v -99 -36 0
v -99 -35 0
v -98 -36 0
v -98 -35 0
v -97 -36 0
v -97 -35 0
v -96 -36 0
v -96 -35 0
v -95 -36 0
v -95 -35 0
v -94 -36 0
v -94 -35 0
v -93 -36 0
v -93 -35 0
v -92 -36 0
v -92 -35 0
v -91 -36 0
v -91 -35 0
v -90 -36 0
v -90 -35 0
v -89 -36 0
v -89 -35 0
v -88 -36 0
v -88 -35 0
v -87 -36 0
v -87 -35 0
v -86 -36 0
v -86 -35 0
v -79 -36 0
v -80 -36 0
v -80 -35 0
v -79 -35 0
v -78 -36 0
v -78 -35 0
v -77 -36 0
v -77 -35 0
v -76 -36 0
v -76 -35 0
v -69 -36 0
v -70 -36 0
v -70 -35 0
v -69 -35 0
v -68 -36 0
v -68 -35 0
v -67 -36 0
v -67 -35 0
v -66 -36 0
v -66 -35 0
v -59 -36 0
v -60 -36 0
v -60 -35 0
v -59 -35 0
v -58 -36 0
v -58 -35 0
v -57 -36 0
v -57 -35 0
v -56 -36 0
v -56 -35 0
v -55 -36 0
v -55 -35 0
v -54 -36 0
v -54 -35 0
v -53 -36 0
v -53 -35 0
v -52 -36 0
v -52 -35 0
v -51 -36 0
v -51 -35 0
v -50 -36 0
v -50 -35 0
v -49 -36 0
v -49 -35 0
v -48 -36 0
v -48 -35 0
v -47 -36 0
v -47 -35 0
v -46 -36 0
v -46 -35 0
v -42 -36 0
v -43 -36 0
v -43 -35 0
v -42 -35 0
v -41 -36 0
v -41 -35 0
v -40 -36 0
v -40 -35 0
v -36 -36 0
v -37 -36 0
v -37 -35 0
v -36 -35 0
v -35 -36 0
v -35 -35 0
v -34 -36 0
v -34 -35 0
v -30 -36 0
v -31 -36 0
v -31 -35 0
v -30 -35 0
v -29 -36 0
v -29 -35 0
v -28 -36 0
v -28 -35 0
v -25 -36 0
v -26 -36 0
v -26 -35 0
v -25 -35 0
v -24 -36 0
v -24 -35 0
v -23 -36 0
v -23 -35 0
v -20 -36 0
v -21 -36 0
v -21 -35 0
v -20 -35 0
v -19 -36 0
v -19 -35 0
v -18 -36 0
v -18 -35 0
v -17 -36 0
v -17 -35 0
v -16 -36 0
v -16 -35 0
v -15 -36 0
v -15 -35 0
v -14 -36 0
v -14 -35 0
v -13 -36 0
v -13 -35 0
v -12 -36 0
v -12 -35 0
v -11 -36 0
v -11 -35 0
v -10 -36 0
v -10 -35 0
v -9 -36 0
v -9 -35 0
v -8 -36 0
v -8 -35 0
v -7 -36 0
v -7 -35 0
v -6 -36 0
v -6 -35 0
v -5 -36 0
v -5 -35 0
v -4 -36 0
v -4 -35 0
v -3 -36 0
v -3 -35 0
v -2 -36 0
v -2 -35 0
v -102 -34 0
v -101 -34 0
v -100 -34 0
v -99 -34 0
v -98 -34 0
v -3 -34 0
v -2 -34 0
v -103 -34 0
v -103 -33 0
v -102 -33 0
v -101 -33 0
v -100 -33 0
v -99 -33 0
v -3 -33 0
v -2 -33 0
v -132 -33 0
v -133 -33 0
v -133 -32 0
v -132 -32 0
v -131 -33 0
v -131 -32 0
v -130 -33 0
v -130 -32 0
v -129 -33 0
v -129 -32 0
v -128 -33 0
v -128 -32 0
v -127 -33 0
v -127 -32 0
v -126 -33 0
v -126 -32 0
v -105 -33 0
v -106 -33 0
v -106 -32 0
v -105 -32 0
v -104 -33 0
v -104 -32 0
v -103 -32 0
v -102 -32 0
v -101 -32 0
v -100 -32 0
v -3 -32 0
v -2 -32 0
v -172 -32 0
v -173 -32 0
v -173 -31 0
v -172 -31 0
v -171 -32 0
v -171 -31 0
v -170 -32 0
v -170 -31 0
v -169 -32 0
v -169 -31 0
v -168 -32 0
v -168 -31 0
v -167 -32 0
v -167 -31 0
v -166 -32 0
v -166 -31 0
v -165 -32 0
v -165 -31 0
v -164 -32 0
v -164 -31 0
v -159 -32 0
v -160 -32 0
v -160 -31 0
v -159 -31 0
v -158 -32 0
v -158 -31 0
v -157 -32 0
v -157 -31 0
v -156 -32 0
v -156 -31 0
v -155 -32 0
v -155 -31 0
v -154 -32 0
v -154 -31 0
v -153 -32 0
v -153 -31 0
v -152 -32 0
v -152 -31 0
v -151 -32 0
v -151 -31 0
v -148 -32 0
v -149 -32 0
v -149 -31 0
v -148 -31 0
v -145 -32 0
v -146 -32 0
v -146 -31 0
v -145 -31 0
v -142 -32 0
v -143 -32 0
v -143 -31 0
v -142 -31 0
v -139 -32 0
v -140 -32 0
v -140 -31 0
v -139 -31 0
v -136 -32 0
v -137 -32 0
v -137 -31 0
v -136 -31 0
v -135 -32 0
v -135 -31 0
v -134 -32 0
v -134 -31 0
v -133 -31 0
v -132 -31 0
v -131 -31 0
v -130 -31 0
v -129 -31 0
v -128 -31 0
v -127 -31 0
v -126 -31 0
v -106 -31 0
v -105 -31 0
v -104 -31 0
v -103 -31 0
v -102 -31 0
v -101 -31 0
v -3 -31 0
v -2 -31 0
v -3 -30 0
v -2 -30 0
v -183 -30 0
v -184 -30 0
v -184 -29 0
v -183 -29 0
v -182 -30 0
v -182 -29 0
v -181 -30 0
v -181 -29 0
v -180 -30 0
v -180 -29 0
v -179 -30 0
v -179 -29 0
v -178 -30 0
v -178 -29 0
v -177 -30 0
v -177 -29 0
v -176 -30 0
v -176 -29 0
v -175 -30 0
v -175 -29 0
v -124 -30 0
v -125 -30 0
v -125 -29 0
v -124 -29 0
v -107 -30 0
v -108 -30 0
v -108 -29 0
v -107 -29 0
v -3 -29 0
v -2 -29 0
v -3 -28 0
v -2 -28 0
v -122 -28 0
v -123 -28 0
v -123 -27 0
v -122 -27 0
v -109 -28 0
v -110 -28 0
v -110 -27 0
v -109 -27 0
v -3 -27 0
v -2 -27 0
v -3 -26 0
v -2 -26 0
v -120 -26 0
v -121 -26 0
v -121 -25 0
v -120 -25 0
v -111 -26 0
v -112 -26 0
v -112 -25 0
v -111 -25 0
v -3 -25 0
v -2 -25 0
v -3 -24 0
v -2 -24 0
v -119 -24 0
v -120 -24 0
v -120 -23 0
v -119 -23 0
v -118 -24 0
v -118 -23 0
v -117 -24 0
v -117 -23 0
v -116 -24 0
v -116 -23 0
v -115 -24 0
v -115 -23 0
v -114 -24 0
v -114 -23 0
v -113 -24 0
v -113 -23 0
v -3 -23 0
v -2 -23 0
v -3 -22 0
v -2 -22 0
v -3 -21 0
v -2 -21 0
v -3 -20 0
v -2 -20 0
v -3 -19 0
v -2 -19 0
v -3 -18 0
v -2 -18 0
v -3 -17 0
v -2 -17 0
v -3 -16 0
v -2 -16 0
v -3 -15 0
v -2 -15 0
v -3 -14 0
v -2 -14 0
v -3 -13 0
v -2 -13 0
v -3 -12 0
v -2 -12 0
v -3 -11 0
v -2 -11 0
v -3 -10 0
v -2 -10 0
v -3 -9 0
v -2 -9 0
v -3 -8 0
v -2 -8 0
v -3 -7 0
v -2 -7 0
v -3 -6 0
v -2 -6 0
v -3 -5 0
v -2 -5 0
v -3 -4 0
v -2 -4 0
v -3 -3 0
v -2 -3 0

# Texture cooridinates (Count = 4)
vt 0.0001220703 0.8872188
vt 0.1127812 0.8872188
vt 0.1127812 0.9998779
vt 0.0001220703 0.9998779

# Normal
vn 0 0 -1

# Groups (Count = 1)

g mesh_0001
f 1/1/1 2/2/1 3/3/1 4/4/1
f 5/1/1 1/2/1 4/3/1 6/4/1
f 7/1/1 5/2/1 6/3/1 8/4/1
f 9/1/1 7/2/1 8/3/1 10/4/1
f 11/1/1 9/2/1 10/3/1 12/4/1
f 13/1/1 11/2/1 12/3/1 14/4/1
f 15/1/1 13/2/1 14/3/1 16/4/1
f 17/1/1 15/2/1 16/3/1 18/4/1
f 19/1/1 17/2/1 18/3/1 20/4/1
f 21/1/1 19/2/1 20/3/1 22/4/1
f 23/1/1 21/2/1 22/3/1 24/4/1
f 25/1/1 23/2/1 24/3/1 26/4/1
f 27/1/1 25/2/1 26/3/1 28/4/1
f 29/1/1 27/2/1 28/3/1 30/4/1
f 31/1/1 29/2/1 30/3/1 32/4/1
f 33/1/1 31/2/1 32/3/1 34/4/1
f 35/1/1 36/2/1 37/3/1 38/4/1
f 39/1/1 35/2/1 38/3/1 40/4/1
f 41/1/1 39/2/1 40/3/1 42/4/1
f 43/1/1 41/2/1 42/3/1 44/4/1
f 45/1/1 46/2/1 47/3/1 48/4/1
f 49/1/1 45/2/1 48/3/1 50/4/1
f 51/1/1 49/2/1 50/3/1 52/4/1
f 53/1/1 51/2/1 52/3/1 54/4/1
f 55/1/1 56/2/1 57/3/1 58/4/1
f 59/1/1 55/2/1 58/3/1 60/4/1
f 61/1/1 59/2/1 60/3/1 62/4/1
f 63/1/1 61/2/1 62/3/1 64/4/1
f 65/1/1 63/2/1 64/3/1 66/4/1
f 67/1/1 65/2/1 66/3/1 68/4/1
f 69/1/1 67/2/1 68/3/1 70/4/1
f 71/1/1 69/2/1 70/3/1 72/4/1
f 73/1/1 71/2/1 72/3/1 74/4/1
f 75/1/1 73/2/1 74/3/1 76/4/1
f 77/1/1 75/2/1 76/3/1 78/4/1
f 79/1/1 77/2/1 78/3/1 80/4/1
f 81/1/1 79/2/1 80/3/1 82/4/1
f 83/1/1 81/2/1 82/3/1 84/4/1
f 85/1/1 86/2/1 87/3/1 88/4/1
f 89/1/1 85/2/1 88/3/1 90/4/1
f 91/1/1 89/2/1 90/3/1 92/4/1
f 93/1/1 94/2/1 95/3/1 96/4/1
f 97/1/1 93/2/1 96/3/1 98/4/1
f 99/1/1 97/2/1 98/3/1 100/4/1
f 101/1/1 102/2/1 103/3/1 104/4/1
f 105/1/1 101/2/1 104/3/1 106/4/1
f 107/1/1 105/2/1 106/3/1 108/4/1
f 109/1/1 110/2/1 111/3/1 112/4/1
f 113/1/1 109/2/1 112/3/1 114/4/1
f 115/1/1 113/2/1 114/3/1 116/4/1
f 117/1/1 118/2/1 119/3/1 120/4/1
f 121/1/1 117/2/1 120/3/1 122/4/1
f 123/1/1 121/2/1 122/3/1 124/4/1
f 125/1/1 123/2/1 124/3/1 126/4/1
f 127/1/1 125/2/1 126/3/1 128/4/1
f 129/1/1 127/2/1 128/3/1 130/4/1
f 131/1/1 129/2/1 130/3/1 132/4/1
f 133/1/1 131/2/1 132/3/1 134/4/1
f 135/1/1 133/2/1 134/3/1 136/4/1
f 137/1/1 135/2/1 136/3/1 138/4/1
f 139/1/1 137/2/1 138/3/1 140/4/1
f 141/1/1 139/2/1 140/3/1 142/4/1
f 143/1/1 141/2/1 142/3/1 144/4/1
f 145/1/1 143/2/1 144/3/1 146/4/1
f 147/1/1 145/2/1 146/3/1 148/4/1
f 149/1/1 147/2/1 148/3/1 150/4/1
f 151/1/1 149/2/1 150/3/1 152/4/1
f 153/1/1 151/2/1 152/3/1 154/4/1
f 155/1/1 153/2/1 154/3/1 156/4/1
f 4/1/1 3/2/1 157/3/1 158/4/1
f 6/1/1 4/2/1 158/3/1 159/4/1
f 8/1/1 6/2/1 159/3/1 160/4/1
f 10/1/1 8/2/1 160/3/1 161/4/1
f 156/1/1 154/2/1 162/3/1 163/4/1
f 157/1/1 164/2/1 165/3/1 166/4/1
f 158/1/1 157/2/1 166/3/1 167/4/1
f 159/1/1 158/2/1 167/3/1 168/4/1
f 160/1/1 159/2/1 168/3/1 169/4/1
f 163/1/1 162/2/1 170/3/1 171/4/1
f 172/1/1 173/2/1 174/3/1 175/4/1
f 176/1/1 172/2/1 175/3/1 177/4/1
f 178/1/1 176/2/1 177/3/1 179/4/1
f 180/1/1 178/2/1 179/3/1 181/4/1
f 182/1/1 180/2/1 181/3/1 183/4/1
f 184/1/1 182/2/1 183/3/1 185/4/1
f 186/1/1 184/2/1 185/3/1 187/4/1
f 188/1/1 189/2/1 190/3/1 191/4/1
f 192/1/1 188/2/1 191/3/1 193/4/1
f 165/1/1 192/2/1 193/3/1 194/4/1
f 166/1/1 165/2/1 194/3/1 195/4/1
f 167/1/1 166/2/1 195/3/1 196/4/1
f 168/1/1 167/2/1 196/3/1 197/4/1
f 171/1/1 170/2/1 198/3/1 199/4/1
f 200/1/1 201/2/1 202/3/1 203/4/1
f 204/1/1 200/2/1 203/3/1 205/4/1
f 206/1/1 204/2/1 205/3/1 207/4/1
f 208/1/1 206/2/1 207/3/1 209/4/1
f 210/1/1 208/2/1 209/3/1 211/4/1
f 212/1/1 210/2/1 211/3/1 213/4/1
f 214/1/1 212/2/1 213/3/1 215/4/1
f 216/1/1 214/2/1 215/3/1 217/4/1
f 218/1/1 216/2/1 217/3/1 219/4/1
f 220/1/1 221/2/1 222/3/1 223/4/1
f 224/1/1 220/2/1 223/3/1 225/4/1
f 226/1/1 224/2/1 225/3/1 227/4/1
f 228/1/1 226/2/1 227/3/1 229/4/1
f 230/1/1 228/2/1 229/3/1 231/4/1
f 232/1/1 230/2/1 231/3/1 233/4/1
f 234/1/1 232/2/1 233/3/1 235/4/1
f 236/1/1 234/2/1 235/3/1 237/4/1
f 238/1/1 236/2/1 237/3/1 239/4/1
f 240/1/1 241/2/1 242/3/1 243/4/1
f 244/1/1 245/2/1 246/3/1 247/4/1
f 248/1/1 249/2/1 250/3/1 251/4/1
f 252/1/1 253/2/1 254/3/1 255/4/1
f 256/1/1 257/2/1 258/3/1 259/4/1
f 260/1/1 256/2/1 259/3/1 261/4/1
f 262/1/1 260/2/1 261/3/1 263/4/1
f 174/1/1 262/2/1 263/3/1 264/4/1
f 175/1/1 174/2/1 264/3/1 265/4/1
f 177/1/1 175/2/1 265/3/1 266/4/1
f 179/1/1 177/2/1 266/3/1 267/4/1
f 181/1/1 179/2/1 267/3/1 268/4/1
f 183/1/1 181/2/1 268/3/1 269/4/1
f 185/1/1 183/2/1 269/3/1 270/4/1
f 187/1/1 185/2/1 270/3/1 271/4/1
f 191/1/1 190/2/1 272/3/1 273/4/1
f 193/1/1 191/2/1 273/3/1 274/4/1
f 194/1/1 193/2/1 274/3/1 275/4/1
f 195/1/1 194/2/1 275/3/1 276/4/1
f 196/1/1 195/2/1 276/3/1 277/4/1
f 199/1/1 198/2/1 278/3/1 279/4/1
f 279/1/1 278/2/1 280/3/1 281/4/1
f 282/1/1 283/2/1 284/3/1 285/4/1
f 286/1/1 282/2/1 285/3/1 287/4/1
f 288/1/1 286/2/1 287/3/1 289/4/1
f 290/1/1 288/2/1 289/3/1 291/4/1
f 292/1/1 290/2/1 291/3/1 293/4/1
f 294/1/1 292/2/1 293/3/1 295/4/1
f 296/1/1 294/2/1 295/3/1 297/4/1
f 298/1/1 296/2/1 297/3/1 299/4/1
f 300/1/1 298/2/1 299/3/1 301/4/1
f 302/1/1 303/2/1 304/3/1 305/4/1
f 306/1/1 307/2/1 308/3/1 309/4/1
f 281/1/1 280/2/1 310/3/1 311/4/1
f 311/1/1 310/2/1 312/3/1 313/4/1
f 314/1/1 315/2/1 316/3/1 317/4/1
f 318/1/1 319/2/1 320/3/1 321/4/1
f 313/1/1 312/2/1 322/3/1 323/4/1
f 323/1/1 322/2/1 324/3/1 325/4/1
f 326/1/1 327/2/1 328/3/1 329/4/1
f 330/1/1 331/2/1 332/3/1 333/4/1
f 325/1/1 324/2/1 334/3/1 335/4/1
f 335/1/1 334/2/1 336/3/1 337/4/1
f 338/1/1 339/2/1 340/3/1 341/4/1
f 342/1/1 338/2/1 341/3/1 343/4/1
f 344/1/1 342/2/1 343/3/1 345/4/1
f 346/1/1 344/2/1 345/3/1 347/4/1
f 348/1/1 346/2/1 347/3/1 349/4/1
f 350/1/1 348/2/1 349/3/1 351/4/1
f 352/1/1 350/2/1 351/3/1 353/4/1
f 337/1/1 336/2/1 354/3/1 355/4/1
f 355/1/1 354/2/1 356/3/1 357/4/1
f 357/1/1 356/2/1 358/3/1 359/4/1
f 359/1/1 358/2/1 360/3/1 361/4/1
f 361/1/1 360/2/1 362/3/1 363/4/1
f 363/1/1 362/2/1 364/3/1 365/4/1
f 365/1/1 364/2/1 366/3/1 367/4/1
f 367/1/1 366/2/1 368/3/1 369/4/1
f 369/1/1 368/2/1 370/3/1 371/4/1
f 371/1/1 370/2/1 372/3/1 373/4/1
f 373/1/1 372/2/1 374/3/1 375/4/1
f 375/1/1 374/2/1 376/3/1 377/4/1
f 377/1/1 376/2/1 378/3/1 379/4/1
f 379/1/1 378/2/1 380/3/1 381/4/1
f 381/1/1 380/2/1 382/3/1 383/4/1
f 383/1/1 382/2/1 384/3/1 385/4/1
f 385/1/1 384/2/1 386/3/1 387/4/1
f 387/1/1 386/2/1 388/3/1 389/4/1
f 389/1/1 388/2/1 390/3/1 391/4/1
f 391/1/1 390/2/1 392/3/1 393/4/1
f 393/1/1 392/2/1 394/3/1 395/4/1

